<svg xmlns="http://www.w3.org/2000/svg" width="16" height="16" fill=" rgb( 255, 255, 255, 0.5)" class="bi bi-linkedin" viewBox="0 0 16 16">
  <path d="M0 1.146C0 .513.526 0 1.175 0h13.65C15.474 0 16 .513 16 1.146v13.708c0 .633-.526 1.146-1.175 1.146H1.175C.526 16 0 15.487 0 14.854V1.146zM4.943 13.5V6.169H2.542V13.5h2.401zm-1.2-8.271c.837 0 1.358-.554 1.358-1.248-.015-.709-.521-1.248-1.342-1.248-.82 0-1.358.54-1.358 1.248 0 .694.52 1.248 1.327 1.248h.015zM13.458 13.5V9.597c0-2.085-1.112-3.052-2.594-3.052-1.193 0-1.73.657-2.033 1.123v-1.02H6.431c.03.674 0 6.852 0 6.852h2.401v-3.829c0-.205.015-.41.074-.556.162-.41.531-.836 1.15-.836.812 0 1.137.63 1.137 1.552V13.5h2.265z"/>
</svg>

